<?xml version="1.0" encoding="UTF-8" standalone="no"?>
<!-- Created with Inkscape (http://www.inkscape.org/) -->

<svg
   xmlns:dc="http://purl.org/dc/elements/1.1/"
   xmlns:cc="http://creativecommons.org/ns#"
   xmlns:rdf="http://www.w3.org/1999/02/22-rdf-syntax-ns#"
   xmlns:svg="http://www.w3.org/2000/svg"
   xmlns="http://www.w3.org/2000/svg"
   xmlns:sodipodi="http://sodipodi.sourceforge.net/DTD/sodipodi-0.dtd"
   xmlns:inkscape="http://www.inkscape.org/namespaces/inkscape"
   width="602.36218"
   height="602.36218"
   id="svg3120"
   version="1.1"
   inkscape:version="0.48.4 r9939"
   sodipodi:docname="logo.svg"
   inkscape:export-filename="/home/rollo/Coding/bruo/src/images/icon8.png"
   inkscape:export-xdpi="1.1952941"
   inkscape:export-ydpi="1.1952941">
  <defs
     id="defs3" />
  <sodipodi:namedview
     inkscape:document-units="mm"
     id="base"
     pagecolor="#ffffff"
     bordercolor="#666666"
     borderopacity="1.0"
     inkscape:pageopacity="0.0"
     inkscape:pageshadow="2"
     inkscape:zoom="0.49497475"
     inkscape:cx="417.17315"
     inkscape:cy="250.61296"
     inkscape:current-layer="layer1"
     showgrid="false"
     inkscape:snap-object-midpoints="true"
     showguides="true"
     inkscape:guide-bbox="true"
     inkscape:snap-page="true"
     inkscape:window-width="1366"
     inkscape:window-height="714"
     inkscape:window-x="0"
     inkscape:window-y="27"
     inkscape:window-maximized="1"
     units="mm" />
  <metadata
     id="metadata4">
    <rdf:RDF>
      <cc:Work
         rdf:about="">
        <dc:format>image/svg+xml</dc:format>
        <dc:type
           rdf:resource="http://purl.org/dc/dcmitype/StillImage" />
        <dc:title></dc:title>
      </cc:Work>
    </rdf:RDF>
  </metadata>
  <g
     inkscape:label="Layer 1"
     inkscape:groupmode="layer"
     id="layer1"
     transform="translate(0,-449.99998)">
    <g
       id="g4164"
       transform="translate(-62.507627,448.62956)">
      <circle
         d="M 464,233 C 464,360.57778 360.57778,464 233,464 105.42222,464 2,360.57778 2,233 2,105.42222 105.42222,2 233,2 360.57778,2 464,105.42222 464,233 z"
         sodipodi:ry="231"
         sodipodi:rx="231"
         sodipodi:cy="233"
         sodipodi:cx="233"
         cx="233"
         cy="233"
         r="231"
         id="circle3176"
         transform="matrix(-1.2077866,0,0,1.2077866,645.29292,2.657573)" />
      <path
         inkscape:connector-curvature="0"
         id="path3178"
         d="m 364.90701,11.125 a 137.49887,136.47988 0 1 0 0,272.9375 c 75.93853,0 137.48766,61.12424 137.48766,136.5 0,70.66477 -54.07997,128.76087 -123.41462,135.75 A 274.99776,272.95977 0 0 0 364.90701,11.125 z"
         style="fill:#ffffff" />
      <circle
         d="m 263,120 c 0,16.56854 -13.43146,30 -30,30 -16.56854,0 -30,-13.43146 -30,-30 0,-16.56854 13.43146,-30 30,-30 16.56854,0 30,13.43146 30,30 z"
         sodipodi:ry="30"
         sodipodi:rx="30"
         sodipodi:cy="120"
         sodipodi:cx="233"
         cx="233"
         cy="120"
         r="30"
         id="circle3182"
         transform="matrix(-1.2077866,0,0,1.2077866,645.29292,2.657573)" />
      <circle
         d="m 263,346 c 0,16.56854 -13.43146,30 -30,30 -16.56854,0 -30,-13.43146 -30,-30 0,-16.56854 13.43146,-30 30,-30 16.56854,0 30,13.43146 30,30 z"
         style="fill:#ffffff"
         sodipodi:ry="30"
         sodipodi:rx="30"
         sodipodi:cy="346"
         sodipodi:cx="233"
         cx="233"
         cy="346"
         r="30"
         id="circle3184"
         transform="matrix(-1.2077866,0,0,1.2077866,645.29292,2.657573)" />
      <path
         style="fill:#ffffff"
         d="m 301.41322,277.94263 c 10.13354,5.1345 26.14592,10.70426 39.44947,11.92166 2.61905,41.2689 -1.42857,41.66384 -1.42857,41.66384 -7.79268,1.60714 -29.8042,4.93312 -38.19947,0.17857 -4.96884,1.43614 0.11905,-35.84271 0.17857,-53.76407 z"
         id="rect3978"
         inkscape:connector-curvature="0"
         sodipodi:nodetypes="ccccc" />
      <path
         sodipodi:nodetypes="ccccc"
         inkscape:connector-curvature="0"
         style="fill:#ffffff"
         d="m 349.39781,291.3983 c 11.16827,-0.0811 24.44039,0.17257 35.14039,1.96428 -0.77381,14.7529 -2.18099,41.53983 -2.32143,44.2587 -3.03777,2.80232 -28.21854,2.2759 -32.81896,0 -2.99025,-1.95152 0,-30.81532 0,-46.22298 z"
         id="rect3980" />
      <path
         style="fill:#ffffff"
         d="m 392.26208,294.97071 c 15.47059,3.21473 24.24713,6.40026 30.67534,10.64884 -1.42122,41.4899 1.05838,41.38737 -0.51363,45.0207 -1.38006,2.87428 -31.98644,-3.54925 -32.55073,-9.18111 -0.50146,-15.49614 1.59268,-30.99229 2.38902,-46.48843 z"
         id="rect3982"
         inkscape:connector-curvature="0"
         sodipodi:nodetypes="ccccc" />
      <path
         style="fill:#ffffff"
         d="m 431.18455,309.21638 c 8.14101,5.00337 14.10403,8.81041 19.11088,14.77951 -0.43161,12.24205 0.41508,32.15389 -1.29483,36.72614 -3.86061,0.89029 -14.99239,-0.721 -18.39661,-4.15047 -2.82038,-2.23495 0.38704,-31.31758 0.58056,-47.35518 z"
         id="rect3984"
         inkscape:connector-curvature="0"
         sodipodi:nodetypes="ccccc" />
      <path
         style="fill:#ffffff"
         d="m 457.84165,331.47617 c 3.95555,2.48222 8.78405,9.50053 13.85456,15.68477 -1.21966,6.54609 -0.0226,16.47889 -1.26269,18.75438 -2.95841,0.64291 -9.66168,-0.0309 -12.81528,-2.14286 -2.45091,-0.88938 0.14894,-21.53086 0.22341,-32.29629 z"
         id="rect3986"
         inkscape:connector-curvature="0"
         sodipodi:nodetypes="ccccc" />
      <path
         sodipodi:nodetypes="ccccc"
         style="fill:#ffffff"
         d="m 361.97444,523.41115 c 3.12218,-2.08697 17.32958,-3.46332 23.91093,-1.78571 0.8091,2.70927 -0.0349,18.34423 -0.0523,27.51634 -7.97456,1.31327 -16.14231,3.01292 -23.15332,2.3991 -0.2351,-9.37658 -3.35029,-25.4298 -0.70531,-28.12973 z"
         id="rect3990"
         inkscape:connector-curvature="0" />
      <path
         style="fill:#ffffff"
         d="m 393.67713,518.25312 c 1.23192,-2.70527 14.83924,-3.32207 17.27575,-0.25254 l 0.50508,24.27116 c -6.75257,2.98031 -12.05837,4.22451 -17.14948,5.21107 -0.21045,-9.74323 -1.99176,-22.62817 -0.63135,-29.22969 z"
         id="rect3992"
         inkscape:connector-curvature="0"
         sodipodi:nodetypes="ccccc" />
      <path
         style="fill:#ffffff"
         d="m 416.86679,515.29624 c -1.18626,-3.35189 14.21091,-5.09285 17.14949,-2.52538 1.36202,3.63684 -0.67344,12.36991 -1.01016,18.55486 -4.31283,2.98763 -8.9193,5.97525 -15.88679,8.96287 z"
         id="rect3994"
         inkscape:connector-curvature="0"
         sodipodi:nodetypes="ccccc" />
      <path
         style="fill:#ffffff"
         d="m 440.76011,508.1548 c 2.36942,-2.52318 10.58475,0.25254 10.58475,0.25254 0.7121,3.58323 -0.31619,4.77084 0.41842,8.808 -2.7131,2.98141 -7.74933,6.85567 -12.48213,9.83708 0.11418,-6.21503 -0.51033,-17.83914 1.47896,-18.89762 z"
         id="rect3996"
         inkscape:connector-curvature="0"
         sodipodi:nodetypes="ccccc" />
      <path
         style="fill:#ffffff"
         d="m 477.48809,357.17275 7.97589,14.62936 c 5.21138,10.93325 -3.79925,4.70147 -8.42194,3.03011 -0.97537,-0.84011 0.29737,-11.77283 0.44605,-17.65947 z"
         id="rect4006"
         inkscape:connector-curvature="0"
         sodipodi:nodetypes="cccc" />
      <path
         style="fill:#ffffff"
         d="m 456.5019,504.65672 c 3.7414,-1.86417 4.39013,-0.0172 6.56376,0 l 0.20921,1.96578 c 0.10033,1.05717 -4.55119,5.36483 -6.46964,7.95796 0.0179,-2.92101 -1.77282,-7.36562 -0.30333,-9.92374 z"
         id="rect4008"
         inkscape:connector-curvature="0"
         sodipodi:nodetypes="ccccc" />
      <path
         inkscape:connector-curvature="0"
         id="circle3184-8-7"
         d="m 192.65625,244.59375 c -12.2532,10.09539 -22.00685,23.2297 -31.23314,36.20621 -42.31569,61.17338 -54.95966,141.88293 -32.63148,212.96907 11.85504,38.56496 33.13515,74.22667 61.77087,102.69972 7.47072,2.66271 10.98015,-6.82389 15.96875,-10.34375 4.99201,-5.97694 12.81492,-10.24003 15.46875,-17.75 -15.56888,-17.68078 -30.54971,-35.90704 -40.59752,-57.39035 -30.98528,-62.89281 -26.68524,-141.94969 11.81901,-200.51764 7.99846,-12.89629 18.23943,-24.30831 28.29248,-35.48201 0.84756,-7.74039 -8.2779,-10.80181 -12.10772,-16.2975 -5.39256,-4.51784 -9.64048,-12.55974 -16.75,-14.09375 z M 242.1875,293.875 c -6.6148,3.8116 -10.99976,11.00844 -16.14706,16.63107 -36.84966,46.08466 -48.42764,111.19245 -29.31023,166.91888 8.92412,26.28361 23.70173,51.18685 43.9934,70.17472 7.77157,0.97058 10.86709,-8.2525 16.33889,-12.06842 4.6604,-5.4133 11.90768,-9.45869 14.21875,-16.46875 -12.8207,-14.838 -24.94671,-30.45188 -31.75203,-49.04073 -18.78656,-47.78667 -7.57863,-105.98465 28.65828,-142.55302 3.54869,-2.91942 3.91125,-7.2616 -0.15625,-9.90625 -7.67618,-8.057 -15.48281,-16.39818 -23.96875,-23.5 -0.6055,-0.17372 -1.24577,-0.27826 -1.875,-0.1875 z M 290.25,343.75 c -32.84529,30.12737 -42.17953,82.6433 -22.9375,122.71875 5.78006,11.98651 13.02332,24.21779 23.80158,32.16235 7.34067,-1.08159 11.03679,-9.44266 16.54217,-13.66235 4.21445,-5.01809 11.10655,-8.69105 12.875,-15.25 -11.96988,-13.47051 -20.94259,-30.48074 -20.34375,-49 -0.0266,-17.5768 7.76989,-34.48576 19.73272,-47.015 0.84751,-7.74074 -8.27706,-10.80049 -12.10772,-16.2975 -5.42386,-4.5962 -9.48673,-12.29043 -16.65625,-14.0625 L 290.25,343.75 z"
         style="fill:#ffffff;fill-opacity:1;stroke:#000000;stroke-width:6.73228359;stroke-linejoin:round;stroke-miterlimit:4;stroke-opacity:1;stroke-dasharray:none" />
    </g>
  </g>
</svg>
